<svg xmlns="http://www.w3.org/2000/svg" xmlns:xlink="http://www.w3.org/1999/xlink" width="2000" zoomAndPan="magnify" viewBox="0 0 1500 1499.999933" height="2000" preserveAspectRatio="xMidYMid meet" version="1.0"><defs><g/><clipPath id="2473dcbaf7"><path d="M 736 845.515625 L 798 845.515625 L 798 860 L 736 860 Z M 736 845.515625 " clip-rule="nonzero"/></clipPath><clipPath id="d65476f101"><path d="M 724.125 862 L 810.375 862 L 810.375 998.515625 L 724.125 998.515625 Z M 724.125 862 " clip-rule="nonzero"/></clipPath></defs><rect x="-150" width="1800" fill="#ffffff" y="-149.999993" height="1799.99992" fill-opacity="1"/><rect x="-150" width="1800" fill="#ffffff" y="-149.999993" height="1799.99992" fill-opacity="1"/><g clip-path="url(#2473dcbaf7)"><path fill="#3f756c" d="M 794.714844 859.519531 L 797.777344 845.933594 C 794.382812 845.933594 740.125 845.933594 736.734375 845.933594 L 739.796875 859.519531 C 741.34375 859.519531 793.164062 859.519531 794.714844 859.519531 " fill-opacity="1" fill-rule="nonzero"/></g><g clip-path="url(#d65476f101)"><path fill="#3f756c" d="M 740.605469 862.582031 C 736.949219 880.402344 731.386719 897.265625 724.132812 913.273438 C 744.476562 927.148438 755.332031 957.9375 764.777344 991.238281 C 763.75 991.996094 763.082031 993.214844 763.082031 994.589844 C 763.082031 996.355469 764.175781 997.859375 765.722656 998.472656 C 765.722656 991.597656 765.722656 909.242188 765.722656 905.445312 C 762.039062 904.730469 759.257812 901.488281 759.257812 897.597656 C 759.257812 893.183594 762.839844 889.601562 767.253906 889.601562 C 771.667969 889.601562 775.25 893.183594 775.25 897.597656 C 775.25 901.488281 772.46875 904.730469 768.785156 905.445312 C 768.785156 909.242188 768.785156 991.597656 768.785156 998.472656 C 770.332031 997.859375 771.429688 996.355469 771.429688 994.589844 C 771.429688 993.214844 770.757812 991.996094 769.730469 991.238281 C 779.179688 957.9375 790.035156 927.148438 810.375 913.273438 C 803.121094 897.265625 797.558594 880.402344 793.90625 862.582031 C 792.402344 862.582031 742.105469 862.582031 740.605469 862.582031 " fill-opacity="1" fill-rule="nonzero"/></g><g fill="#3f756c" fill-opacity="1"><g transform="translate(605.562173, 781.974753)"><g><path d="M 11.09375 -196.796875 L 36.90625 -196.796875 L 36.90625 -4.796875 L 11.703125 -4.796875 L 11.703125 0 L 91.796875 0 L 91.796875 -4.796875 L 66 -4.796875 L 66 -103.796875 L 89.703125 -103.796875 C 94.097656 -103.796875 97.59375 -103.144531 100.1875 -101.84375 C 102.789062 -100.550781 104.84375 -98.703125 106.34375 -96.296875 C 107.84375 -93.898438 108.992188 -91 109.796875 -87.59375 C 110.597656 -84.195312 111.398438 -80.398438 112.203125 -76.203125 C 112.796875 -73.398438 113.59375 -72 114.59375 -72 C 115.800781 -72 116.40625 -73.300781 116.40625 -75.90625 L 116.40625 -136.796875 C 116.40625 -139.203125 115.800781 -140.40625 114.59375 -140.40625 C 113.59375 -140.40625 112.796875 -139.003906 112.203125 -136.203125 C 111.398438 -132.003906 110.597656 -128.203125 109.796875 -124.796875 C 108.992188 -121.398438 107.84375 -118.5 106.34375 -116.09375 C 104.84375 -113.695312 102.789062 -111.847656 100.1875 -110.546875 C 97.59375 -109.242188 94.097656 -108.59375 89.703125 -108.59375 L 66 -108.59375 L 66 -196.796875 L 111.59375 -196.796875 C 118.394531 -196.796875 124.09375 -195.144531 128.6875 -191.84375 C 133.289062 -188.550781 136.992188 -184.453125 139.796875 -179.546875 C 142.597656 -174.648438 144.648438 -169.453125 145.953125 -163.953125 C 147.253906 -158.453125 148.003906 -153.5 148.203125 -149.09375 C 148.203125 -146.300781 149 -144.90625 150.59375 -144.90625 C 152 -144.90625 152.703125 -146.203125 152.703125 -148.796875 L 152.703125 -194.40625 C 152.703125 -199.195312 150.203125 -201.59375 145.203125 -201.59375 L 11.09375 -201.59375 Z M 11.09375 -196.796875 "/></g></g></g><g fill="#3f756c" fill-opacity="1"><g transform="translate(720.906595, 846.207627)"><g><path d="M 86.90625 -199.9375 C 110.570312 -199.9375 128.796875 -195.296875 141.578125 -186.015625 C 154.359375 -176.742188 160.75 -162.925781 160.75 -144.5625 C 160.75 -135.84375 158.945312 -128.03125 155.34375 -121.125 C 151.75 -114.21875 146.734375 -108.394531 140.296875 -103.65625 C 133.859375 -98.925781 126.1875 -95.328125 117.28125 -92.859375 C 108.382812 -90.398438 98.734375 -89.171875 88.328125 -89.171875 C 83.785156 -89.171875 78.957031 -89.597656 73.84375 -90.453125 C 68.726562 -91.304688 64.75 -92.488281 61.90625 -94 L 61.90625 -4.546875 L 90.875 -4.546875 L 90.875 0 L 4.828125 0 L 4.828125 -4.546875 L 32.9375 -4.546875 L 32.9375 -195.390625 L 4.828125 -195.390625 L 4.828125 -199.9375 Z M 61.90625 -99.6875 C 64.175781 -98.164062 67.207031 -96.789062 71 -95.5625 C 74.789062 -94.332031 78.863281 -93.71875 83.21875 -93.71875 C 89.84375 -93.71875 95.992188 -94.710938 101.671875 -96.703125 C 107.347656 -98.691406 112.316406 -101.71875 116.578125 -105.78125 C 120.835938 -109.851562 124.148438 -114.921875 126.515625 -120.984375 C 128.890625 -127.046875 130.078125 -134.050781 130.078125 -142 C 130.078125 -160.9375 125.769531 -174.566406 117.15625 -182.890625 C 108.539062 -191.222656 96.28125 -195.390625 80.375 -195.390625 L 61.90625 -195.390625 Z M 61.90625 -99.6875 "/></g></g></g></svg>